<svg xmlns="http://www.w3.org/2000/svg" xml:space="preserve" viewBox="0 0 1000 1000">
  <path fill="white" d="M10.5 419.7v-.3c-.5 4-.8 5.6 0 .3zM10.5 419.4v-.1zM981.7 381.1c-4.4 33.7-9.2 51-14.1 52.2 0 0-1.7-180.2-61.5-240 10.2 105.1.1 62.7.1 63.2-81-139.9-232.4-234.3-405.4-234.3C356.3 22.2 227 87.9 140.9 191c-.7-.6-1.4-1.3-2.3-2.2-13.5-12.3-21.2-71.4-21.2-71.4 0-.2-.1-.4-.1-.6s-.1-.4-.1-.6c0-.1 0-.2-.1-.4-.1.1-.2.3-.4.4-.2.2-.3.4-.4.5-.2.1-.3.4-.4.5-.2.2-.3.4-.5.5-.1.2-.3.4-.4.5-.2.2-.3.4-.4.5-.2.2-.3.4-.5.5-.1.2-.3.4-.4.5-.1.2-.3.4-.5.6-.1.2-.3.4-.4.5-.1.2-.3.4-.4.5-.2.2-.3.4-.5.5-.1.2-.3.4-.5.6 0 0-25.1 33.1-34 69-5.9 28.5-.1.4-.2.5 0 .2 0 .4-.1.6 0 .2-.1.4-.1.5-7.5 29.6-11.1 64.9-10.6 106.2-.3.4-.7.6-.9 1 0 0-44.3 48-51.6 99.4-1.4 10.2-2.3 16.3-2.8 19.6v.3c-.1 1.5-.3 3.1-.3 4.6.1-.2.3-.4.4-.7.1 3.9.5 7.7 1.5 11.2L39.3 413c-.4 2.6-.9 5-1.3 7.6-9 23.8-15 48.2-18 74.2-8.7 78.8 8.3 156.9 50.3 234.1 0 0 16.9 30.4 27.2 44.8 1.3 2.1 2.5 4.1 3.9 6.2h.3c87.9 120 229 197.9 388 197.9 140.7 0 267.2-60.9 355.4-158.1h1.7c5.8-7.1 11.2-14.4 16.7-21.6 14.7-18.2 28.2-37.4 40.3-57.6l-1.1.1c37.7-61.9 62.5-125.7 73.7-191.5 16.1-65 17.9-121 5.3-168zM140.3 191.7c-.1-.2-.2-.3-.3-.5-.1-.2-.3-.4-.4-.6-.2-.2-.3-.4-.4-.5-.1-.2-.2-.4-.3-.7 0 0 .9.8 1.9 1.7-.1.2-.3.4-.5.6zm706.3 168c-10-15.5-23.1-25.6-39.9-30.7 20.8 80.7 22.9 147.4 6 199.9-11.5-35-22.1-56-31.6-63.4 13.2 108.1-4.7 188.2-53.3 240.3 9.3-31.8 12.9-57.9 10.8-78.4C681.4 713 616.3 757.2 543.5 760c-28.9-.3-56-4.7-81.6-12.9-.5 0-1.1-.1-1.6-.1-2.5-.8-5-1.8-7.5-2.7-2.2-.8-4.3-1.6-6.4-2.6-2.1-.9-4.2-1.8-6.2-2.8-2-.9-4.1-1.8-6.2-2.8-1.9-.9-3.9-2-5.8-3-1.9-.9-4-1.9-5.8-2.9-1.9-1-3.7-2.2-5.5-3.2-1.9-1-3.7-2.1-5.5-3.2-1.8-1-3.5-2.2-5.3-3.3-1.8-1.1-3.4-2.3-5.1-3.5-1.7-1.2-3.4-2.3-5.1-3.5-1.6-1.2-3.2-2.5-4.8-3.7-1.6-1.2-3.2-2.4-4.8-3.7-1.6-1.3-3.1-2.5-4.7-3.8-1.5-1.2-3-2.6-4.5-3.9-1.5-1.3-3-2.5-4.5-3.9-1.4-1.3-2.8-2.7-4.3-4-1.4-1.3-2.9-2.7-4.2-4-1.1-1.1-2.2-2.1-3.3-3.2.4.1.9.1 1.3.1 1.1.1 2.2.1 3.3.2 1 0 2.2.1 3.3.1 1.1.1 2.2.1 3.2.2 1.2.1 2.2.2 3.3.2 1.2 0 2.2.2 3.3.2 1.2 0 2.3-.1 3.5 0 1.1 0 2.2-.1 3.4-.1h6.8c1.1 0 2.2 0 3.4-.1 1.2-.1 2.4-.2 3.5-.3l3.6-.3c1.1-.1 2.3-.2 3.4-.3 1.2-.1 2.4-.1 3.5-.2 1.2-.2 2.4-.3 3.6-.4s2.4-.4 3.6-.6c1.2-.2 2.4-.3 3.6-.5 1.2-.1 2.4-.4 3.6-.5 1.2-.2 2.5-.4 3.6-.6 1.3-.2 2.5-.5 3.7-.8 1.2-.2 2.5-.6 3.7-.8 1.3-.3 2.6-.6 3.8-.9 1.3-.3 2.6-.5 3.7-.8 1.3-.4 2.6-.7 3.9-1 1.2-.4 2.6-.8 3.9-1.2 1.3-.4 2.7-.7 4-1.1 1.3-.4 2.6-.7 3.9-1.1 1.3-.4 2.7-.9 4-1.4 1.3-.5 2.8-1 4.1-1.5 1.3-.5 2.7-1 4.1-1.5 1.3-.5 2.7-.9 4-1.5 1.4-.7 2.8-1.3 4.2-2 1.4-.6 2.8-1.3 4.3-2 1.4-.7 2.8-1.3 4.3-1.9.6-.4 1.3-.6 1.9-.9l2.6-1.7 4.8-3.1 4.8-3.1 4.8-3.1 4.8-3.1 4.8-3.1 4.8-3.1 4.8-3.1 4.8-3.1 4.7-3.1 4.8-3.1 4.8-3.1 4.8-3.1 2.2-1.4-.2-.2c8.1-3 15.7-2.8 23.1.7 15.2-2.1 20.5-10.2 15.4-23.8-7.4-10.1-18.5-19.4-32.7-27.4-31.2-16.2-63.6-13.7-97.6 7.8-32.2 18.2-63.4 17.5-93.6-1.8-19.9-13.6-39-31.8-57.4-54.7l-7.4-10.8c-.1.4-.1.9-.1 1.3 0-.4 0-.9.1-1.4v-1.1c.1-2.6.4-5.1.8-7.4.5-3 1.2-5.7 2.1-8.3 1.4-4.3 3.5-7.9 6-10.9 3.4-4 7.7-6.9 13-8.7 2-.6 4.2-1.1 6.4-1.5-1.3-.1-2.4-.2-3.6-.3-3.4-.3-6.4-.6-9.2-.8-3.5-.3-6.7-.6-9.2-.8-1.8-.1-3.3-.2-4.5-.3-1.7-.1-3.3-.2-4.9-.3-2.6-.1-5.1-.3-7.6-.4-.7 0-1.2-.1-1.9-.1-2.9-.2-5.3-.4-7.5-.7h8.5c4.1.2 8.3.4 12.4.7 4.7.2 13.6.9 26.5 2.1 20.4 1.9 43.7 6.5 69.9 14.1 4.4-25.2-1.4-51.5-17.3-78.4v-.4c-1.4-3.1-3.4-6.1-5.8-9 .9.9 1.8 1.9 2.6 2.9 1.3 1.7 2.2 3.4 3.1 5.2.3.6.8 1.2 1 1.8.7-.7 1.4-1.2 2.1-1.8 1-.9 2-1.8 3.1-2.8 1.1-.9 2.1-1.8 3.1-2.7 1-.9 2.1-1.9 3.1-2.8 1-.9 2.1-1.9 3.1-2.8 1-.9 2.1-1.8 3.1-2.8 1.1-.9 2.1-1.6 3.1-2.6 1-.9 2.1-1.7 3.1-2.5 1-.9 2.1-1.7 3.1-2.6 1-.9 2.1-1.7 3.1-2.5s2.2-1.8 3.1-2.5c1-.9 2.1-1.6 3.1-2.4 1.1-.8 2.1-1.4 3.1-2.2 1.1-.8 2.1-1.5 3.1-2.2 1-.8 2.1-1.5 3.2-2.3 1-.7 2.1-1.5 3.1-2.2 1-.8 2.1-1.5 3.1-2.2 1.1-.7 2.1-1.3 3.1-2 1.1-.6 2.1-1.3 3.1-1.9 1-.6 2.1-1.3 3.1-1.9 1-.6 2.1-1.3 3.1-1.9.3-.1.6-.3.8-.5.9-.5 1.5-1 2.4-1.6 1-.7 2.2-1.3 3.1-2.1 1.2-1 2.2-2.1 3.1-3.3 1.2-1.4 2.2-3 3.1-4.7 1.3-2.6 2.5-5.3 3.1-8.5.2-.2.4-.4.7-.4l.2-.2.9-.9c4.9-7.1 3.2-12.9-5.1-18-17.2.9-51.7-3-52.1-3.1-.2-.1-.4-.2-.7-.3-40.9-17.1-63.5-53-63.5-53 0 .2-.9-1-.9-1l-1.3-1.7.2-.2c.2-.1.3-.2.5-.4.1-.1.3-.2.4-.3.1-.1.3-.2.4-.4.2-.1.4-.2.5-.4h.1c0-.2.1-.3.1-.4 0-.1.1-.4.1-.5 0-.2 0-.4.1-.5 0-.1-.7.6.1-.5-7.7-62.5 74.3-103.6 74.3-103.6s-98.7 27.6-129.4 63.5l-4.5.3 4.1.1c-.1.1-.2.2-.4.3-.1.2-.2.3-.4.4-.2.1-.3.3-.4.4 0 0-.1.1-.2.1-.2-.1-.4-.1-.7-.2-.6-.2-1.2-.4-1.8-.5-59.6-14.4-108.4 7.1-108.4 7.1-.4 0-.7.2-.9.3-.4.1-.7.3-.9.4-.4.1-.7.2-1 .3l-.9.3c-8.7-4.2-16.4-10.9-23.2-19.9 83.9-102.4 211-167.9 353.2-167.9 109.9 0 210.8 39.2 289.5 104.3-12.5-6.2-25.8-11.6-40-15.9-40.1-11.9-87.8-18.9-142.9-20.5 24.2 4.8 44.7 10.9 61.3 18.4 1 .3 2 .7 3 .9 23.4 11.1 39.1 25 46.4 41.3-23.7-4.4-45.2-2.7-64.1 4.6C789.5 222.4 853.9 286 846.6 359.7zM12.9 402c-1.2 5.7-1.8 11.2-2.2 16.5.9-6.6 2.5-17.6 2.5-17.4-.2.2-.3.5-.3.9zM10.7 418.4c0 .3-.1.6-.1.9v-.1c-.1-.2 0-.5.1-.8z"/>
</svg>
